<svg xmlns="http://www.w3.org/2000/svg" viewBox="0 0 180 48" fill="none">
  <g transform="translate(4, 8)">
    <path d="M 13 19 C 14.472 19 15.666 20.238 15.666 21.764 C 15.666 23.291 14.472 24.529 13 24.529 C 11.528 24.529 10.334 23.291 10.334 21.764 C 10.334 20.238 11.528 19 13 19 Z" fill="#EA338A"></path>
    <path d="M 11.296 1.459 C 12.124 0.233 13.876 0.233 14.704 1.459 L 25.624 17.638 C 26.282 18.614 26.054 19.958 25.114 20.641 C 24.173 21.324 22.875 21.088 22.217 20.112 L 13.959 7.877 C 13.493 7.186 12.507 7.186 12.042 7.877 L 3.783 20.112 C 3.126 21.088 1.828 21.324 0.886 20.641 C -0.054 19.958 -0.282 18.614 0.376 17.638 L 11.296 1.459 Z" fill="#EA338A"></path>
  </g>
  <g transform="translate(40, 14)" fill="#F7F7FC">
    <path d="M 4.2 12.8 C 2.5 12.8 1.1 12.3 0.2 11.3 C -0.7 10.3 -0.3 8.4 0.9 7.7 C 1.7 7.2 3 7 4.6 6.9 L 7.4 6.7 L 7.4 6.2 C 7.4 4.9 6.7 4.2 5.3 4.2 C 4 4.2 3.3 4.7 3.1 5.6 L 0.2 5.3 C 0.6 2.6 2.4 1.2 5.5 1.2 C 8.7 1.2 10.4 2.8 10.4 5.9 L 10.4 9.9 C 10.4 11 10.4 11.9 10.6 12.7 L 7.9 12.7 C 7.7 12.3 7.6 11.7 7.5 11.2 C 6.9 12.2 5.6 12.8 4.2 12.8 Z M 5.2 10.4 C 6.6 10.4 7.4 9.6 7.4 8.4 L 7.4 8.1 L 4.9 8.3 C 3.9 8.4 3.3 8.9 3.3 9.6 C 3.3 10.1 3.9 10.4 5.2 10.4 Z"></path>
    <path d="M 13 12.6 L 13 1.5 L 15.8 1.5 L 15.9 3.5 C 16.4 2 17.6 1.2 19.1 1.2 C 19.5 1.2 19.9 1.3 20.1 1.4 L 20 4.1 C 19.7 4.1 19.3 4 19 4 C 17.2 4 16.1 5 16.1 7 L 16.1 12.6 L 13 12.6 Z"></path>
    <path d="M 22 12.6 L 22 1.5 L 25.1 1.5 L 25.1 12.6 L 22 12.6 Z M 23.5 0 C 22.5 0 21.8 -0.6 21.8 -1.5 C 21.8 -2.4 22.5 -3 23.5 -3 C 24.5 -3 25.2 -2.4 25.2 -1.5 C 25.2 -0.6 24.5 0 23.5 0 Z"></path>
    <path d="M 27.8 12.6 L 27.8 10.5 L 33.4 3.9 L 28.2 3.9 L 28.2 1.5 L 37.3 1.5 L 37.3 3.6 L 31.8 10.2 L 37.3 10.2 L 37.3 12.6 L 27.8 12.6 Z"></path>
    <path d="M 44.9 13 C 41 13 38.7 10.8 38.7 7.1 C 38.7 3.5 40.9 1.2 44.5 1.2 C 47.9 1.2 50.1 3.4 50.1 6.7 L 50.1 7.9 L 41.7 7.9 C 41.9 9.6 42.9 10.5 44.8 10.5 C 46 10.5 46.9 10.1 47.4 9.3 L 49.9 10.3 C 48.9 12.1 47.1 13 44.9 13 Z M 44.4 3.6 C 43 3.6 42.1 4.3 41.8 5.7 L 47 5.7 C 46.7 4.3 45.8 3.6 44.4 3.6 Z"></path>
  </g>
</svg>
