<svg xmlns="http://www.w3.org/2000/svg" width="13" height="12" viewBox="0 0 13 12" fill="none">
  <path d="M 6.5 9.235 C 7.236 9.235 7.833 9.854 7.833 10.618 C 7.833 11.381 7.236 12 6.5 12 C 5.764 12 5.167 11.381 5.167 10.618 C 5.167 9.854 5.764 9.235 6.5 9.235 Z" fill="currentColor" fill-rule="nonzero"></path>
  <path d="M 5.648 0.46 C 6.062 -0.153 6.938 -0.153 7.352 0.46 L 12.812 8.55 C 13.141 9.038 13.027 9.71 12.557 10.052 C 12.086 10.393 11.437 10.275 11.108 9.787 L 6.979 3.669 C 6.746 3.324 6.253 3.324 6.021 3.669 L 1.892 9.787 C 1.563 10.275 0.914 10.393 0.443 10.052 C -0.027 9.71 -0.141 9.038 0.188 8.55 L 5.648 0.46 Z" fill="currentColor" fill-rule="nonzero"></path>
</svg>
